<svg xmlns="http://www.w3.org/2000/svg" viewBox="0 0 700 450" font-family="system-ui, sans-serif" font-size="12">
  <rect x="0" y="0" width="700" height="450" fill="white"/>
  <text x="70" y="22" font-size="16" font-weight="bold">NSGA-II on Schaffer N.1 — hypervolume per generation</text>
  <rect x="70" y="40" width="610" height="360" fill="none" stroke="#888" />
  <line x1="70" y1="400" x2="70" y2="405" stroke="#888" />
  <text x="70" y="418" text-anchor="middle">0</text>
  <line x1="222.5" y1="400" x2="222.5" y2="405" stroke="#888" />
  <text x="222.5" y="418" text-anchor="middle">25</text>
  <line x1="375" y1="400" x2="375" y2="405" stroke="#888" />
  <text x="375" y="418" text-anchor="middle">50</text>
  <line x1="527.5" y1="400" x2="527.5" y2="405" stroke="#888" />
  <text x="527.5" y="418" text-anchor="middle">75</text>
  <line x1="680" y1="400" x2="680" y2="405" stroke="#888" />
  <text x="680" y="418" text-anchor="middle">100</text>
  <line x1="65" y1="400" x2="70" y2="400" stroke="#888" />
  <text x="62" y="400" text-anchor="end" dominant-baseline="middle">9.552e1</text>
  <line x1="65" y1="279.999999999999" x2="70" y2="279.999999999999" stroke="#888" />
  <text x="62" y="279.999999999999" text-anchor="end" dominant-baseline="middle">9.608e1</text>
  <line x1="65" y1="160.00000000000102" x2="70" y2="160.00000000000102" stroke="#888" />
  <text x="62" y="160.00000000000102" text-anchor="end" dominant-baseline="middle">9.664e1</text>
  <line x1="65" y1="40" x2="70" y2="40" stroke="#888" />
  <text x="62" y="40" text-anchor="end" dominant-baseline="middle">9.721e1</text>
  <text x="375" y="438" text-anchor="middle">generation</text>
  <text x="15" y="220" text-anchor="middle" transform="rotate(-90 15 220)">hypervolume</text>
  <polyline points="70.00,400.00 76.10,113.85 82.20,59.99 88.30,44.22 94.40,45.84 100.50,47.93 106.60,45.55 112.70,40.78 118.80,43.34 124.90,41.17 131.00,42.71 137.10,44.97 143.20,43.62 149.30,43.69 155.40,46.67 161.50,40.97 167.60,41.76 173.70,41.27 179.80,46.13 185.90,42.18 192.00,44.17 198.10,42.62 204.20,41.90 210.30,42.69 216.40,40.00 222.50,42.66 228.60,48.64 234.70,47.22 240.80,42.14 246.90,45.35 253.00,48.46 259.10,42.98 265.20,44.96 271.30,44.55 277.40,44.30 283.50,43.54 289.60,43.88 295.70,42.70 301.80,44.10 307.90,46.88 314.00,46.56 320.10,42.39 326.20,44.45 332.30,45.03 338.40,46.44 344.50,44.44 350.60,45.79 356.70,49.23 362.80,42.47 368.90,44.42 375.00,50.51 381.10,44.45 387.20,42.54 393.30,42.50 399.40,42.83 405.50,40.56 411.60,49.78 417.70,47.03 423.80,44.17 429.90,45.73 436.00,42.66 442.10,44.31 448.20,49.69 454.30,41.19 460.40,41.14 466.50,41.87 472.60,41.88 478.70,41.41 484.80,43.24 490.90,45.61 497.00,45.55 503.10,45.16 509.20,46.10 515.30,42.66 521.40,42.46 527.50,48.78 533.60,46.56 539.70,42.49 545.80,43.23 551.90,47.51 558.00,44.28 564.10,45.05 570.20,43.75 576.30,44.15 582.40,42.29 588.50,41.54 594.60,43.25 600.70,41.56 606.80,48.07 612.90,42.87 619.00,42.68 625.10,43.69 631.20,45.47 637.30,42.93 643.40,40.77 649.50,42.53 655.60,42.89 661.70,44.33 667.80,41.27 673.90,44.06 680.00,41.55" fill="none" stroke="#1f77b4" stroke-width="1.5" />
</svg>