<svg xmlns="http://www.w3.org/2000/svg" viewBox="0 0 700 450" font-family="system-ui, sans-serif" font-size="12">
  <rect x="0" y="0" width="700" height="450" fill="white"/>
  <text x="60" y="22" font-size="16" font-weight="bold">NSGA-II on Schaffer N.1 — final Pareto front</text>
  <rect x="60" y="40" width="620" height="360" fill="none" stroke="#888" />
  <line x1="60" y1="400" x2="60" y2="405" stroke="#888" />
  <text x="60" y="418" text-anchor="middle">0.000</text>
  <line x1="266.66666666666663" y1="400" x2="266.66666666666663" y2="405" stroke="#888" />
  <text x="266.66666666666663" y="418" text-anchor="middle">1.333</text>
  <line x1="473.3333333333333" y1="400" x2="473.3333333333333" y2="405" stroke="#888" />
  <text x="473.3333333333333" y="418" text-anchor="middle">2.667</text>
  <line x1="680" y1="400" x2="680" y2="405" stroke="#888" />
  <text x="680" y="418" text-anchor="middle">4.000</text>
  <line x1="55" y1="400" x2="60" y2="400" stroke="#888" />
  <text x="52" y="400" text-anchor="end" dominant-baseline="middle">0.000</text>
  <line x1="55" y1="280" x2="60" y2="280" stroke="#888" />
  <text x="52" y="280" text-anchor="end" dominant-baseline="middle">1.333</text>
  <line x1="55" y1="160" x2="60" y2="160" stroke="#888" />
  <text x="52" y="160" text-anchor="end" dominant-baseline="middle">2.666</text>
  <line x1="55" y1="40" x2="60" y2="40" stroke="#888" />
  <text x="52" y="40" text-anchor="end" dominant-baseline="middle">3.999</text>
  <text x="370" y="438" text-anchor="middle">f1</text>
  <text x="15" y="220" text-anchor="middle" transform="rotate(-90 15 220)">f2</text>
  <circle cx="680.00" cy="400.00" r="3" fill="#1f77b4" stroke="#0d4a8a" stroke-width="0.5" />
  <circle cx="60.00" cy="40.00" r="3" fill="#1f77b4" stroke="#0d4a8a" stroke-width="0.5" />
  <circle cx="544.53" cy="395.16" r="3" fill="#1f77b4" stroke="#0d4a8a" stroke-width="0.5" />
  <circle cx="596.60" cy="398.25" r="3" fill="#1f77b4" stroke="#0d4a8a" stroke-width="0.5" />
  <circle cx="147.76" cy="259.91" r="3" fill="#1f77b4" stroke="#0d4a8a" stroke-width="0.5" />
  <circle cx="77.82" cy="151.68" r="3" fill="#1f77b4" stroke="#0d4a8a" stroke-width="0.5" />
  <circle cx="166.09" cy="276.21" r="3" fill="#1f77b4" stroke="#0d4a8a" stroke-width="0.5" />
  <circle cx="512.44" cy="392.35" r="3" fill="#1f77b4" stroke="#0d4a8a" stroke-width="0.5" />
  <circle cx="457.04" cy="385.63" r="3" fill="#1f77b4" stroke="#0d4a8a" stroke-width="0.5" />
  <circle cx="122.47" cy="232.25" r="3" fill="#1f77b4" stroke="#0d4a8a" stroke-width="0.5" />
  <circle cx="133.03" cy="244.68" r="3" fill="#1f77b4" stroke="#0d4a8a" stroke-width="0.5" />
  <circle cx="92.63" cy="186.20" r="3" fill="#1f77b4" stroke="#0d4a8a" stroke-width="0.5" />
  <circle cx="277.90" cy="340.31" r="3" fill="#1f77b4" stroke="#0d4a8a" stroke-width="0.5" />
  <circle cx="329.99" cy="358.35" r="3" fill="#1f77b4" stroke="#0d4a8a" stroke-width="0.5" />
  <circle cx="86.30" cy="173.00" r="3" fill="#1f77b4" stroke="#0d4a8a" stroke-width="0.5" />
  <circle cx="83.00" cy="165.28" r="3" fill="#1f77b4" stroke="#0d4a8a" stroke-width="0.5" />
  <circle cx="479.72" cy="388.69" r="3" fill="#1f77b4" stroke="#0d4a8a" stroke-width="0.5" />
  <circle cx="71.88" cy="132.73" r="3" fill="#1f77b4" stroke="#0d4a8a" stroke-width="0.5" />
  <circle cx="177.45" cy="285.16" r="3" fill="#1f77b4" stroke="#0d4a8a" stroke-width="0.5" />
  <circle cx="60.12" cy="49.89" r="3" fill="#1f77b4" stroke="#0d4a8a" stroke-width="0.5" />
  <circle cx="139.30" cy="251.43" r="3" fill="#1f77b4" stroke="#0d4a8a" stroke-width="0.5" />
  <circle cx="228.69" cy="317.60" r="3" fill="#1f77b4" stroke="#0d4a8a" stroke-width="0.5" />
  <circle cx="661.27" cy="399.92" r="3" fill="#1f77b4" stroke="#0d4a8a" stroke-width="0.5" />
  <circle cx="247.24" cy="326.94" r="3" fill="#1f77b4" stroke="#0d4a8a" stroke-width="0.5" />
  <circle cx="97.14" cy="194.62" r="3" fill="#1f77b4" stroke="#0d4a8a" stroke-width="0.5" />
  <circle cx="291.01" cy="345.35" r="3" fill="#1f77b4" stroke="#0d4a8a" stroke-width="0.5" />
  <circle cx="188.72" cy="293.31" r="3" fill="#1f77b4" stroke="#0d4a8a" stroke-width="0.5" />
  <circle cx="237.44" cy="322.14" r="3" fill="#1f77b4" stroke="#0d4a8a" stroke-width="0.5" />
  <circle cx="62.32" cy="82.64" r="3" fill="#1f77b4" stroke="#0d4a8a" stroke-width="0.5" />
  <circle cx="400.75" cy="375.91" r="3" fill="#1f77b4" stroke="#0d4a8a" stroke-width="0.5" />
  <circle cx="314.75" cy="353.60" r="3" fill="#1f77b4" stroke="#0d4a8a" stroke-width="0.5" />
  <circle cx="206.51" cy="304.92" r="3" fill="#1f77b4" stroke="#0d4a8a" stroke-width="0.5" />
  <circle cx="436.65" cy="382.48" r="3" fill="#1f77b4" stroke="#0d4a8a" stroke-width="0.5" />
  <circle cx="263.18" cy="334.19" r="3" fill="#1f77b4" stroke="#0d4a8a" stroke-width="0.5" />
  <circle cx="344.89" cy="362.64" r="3" fill="#1f77b4" stroke="#0d4a8a" stroke-width="0.5" />
  <circle cx="67.81" cy="116.23" r="3" fill="#1f77b4" stroke="#0d4a8a" stroke-width="0.5" />
  <circle cx="61.00" cy="68.34" r="3" fill="#1f77b4" stroke="#0d4a8a" stroke-width="0.5" />
  <circle cx="60.73" cy="64.24" r="3" fill="#1f77b4" stroke="#0d4a8a" stroke-width="0.5" />
  <circle cx="641.54" cy="399.64" r="3" fill="#1f77b4" stroke="#0d4a8a" stroke-width="0.5" />
  <circle cx="115.80" cy="223.58" r="3" fill="#1f77b4" stroke="#0d4a8a" stroke-width="0.5" />
  <circle cx="216.38" cy="310.79" r="3" fill="#1f77b4" stroke="#0d4a8a" stroke-width="0.5" />
  <circle cx="169.95" cy="279.34" r="3" fill="#1f77b4" stroke="#0d4a8a" stroke-width="0.5" />
  <circle cx="384.40" cy="372.44" r="3" fill="#1f77b4" stroke="#0d4a8a" stroke-width="0.5" />
  <circle cx="65.45" cy="104.28" r="3" fill="#1f77b4" stroke="#0d4a8a" stroke-width="0.5" />
  <circle cx="633.74" cy="399.48" r="3" fill="#1f77b4" stroke="#0d4a8a" stroke-width="0.5" />
  <circle cx="64.21" cy="96.82" r="3" fill="#1f77b4" stroke="#0d4a8a" stroke-width="0.5" />
  <circle cx="107.71" cy="212.00" r="3" fill="#1f77b4" stroke="#0d4a8a" stroke-width="0.5" />
  <circle cx="414.47" cy="378.59" r="3" fill="#1f77b4" stroke="#0d4a8a" stroke-width="0.5" />
  <circle cx="616.88" cy="399.02" r="3" fill="#1f77b4" stroke="#0d4a8a" stroke-width="0.5" />
  <circle cx="419.20" cy="379.46" r="3" fill="#1f77b4" stroke="#0d4a8a" stroke-width="0.5" />
</svg>